<svg width="41" height="9" viewBox="0 0 41 9" fill="none" xmlns="http://www.w3.org/2000/svg">
<path d="M0 0.184931H1.65967L4.61019 3.88356L7.56072 0.184931H9.22039V8.81507H7.37631V3.14384L4.61019 6.59589L1.84408 3.14384V8.81507H0V0.184931Z" fill="#493E3E"/>
<path d="M11.4294 0.184931H17.8222V1.91096H13.2735V3.57534H16.8387V5.23973H13.2735V7.08904H17.9452V8.81507H11.4294V0.184931Z" fill="#493E3E"/>
<path d="M19.6053 0.184931H21.4494V3.57534H25.1376V0.184931H26.9816V8.81507H25.1376V5.30137H21.4494V8.81507H19.6053V0.184931Z" fill="#493E3E"/>
<path d="M29.1979 0.184931H31.042V3.57534H32.2099C32.3 3.09863 32.4681 2.64658 32.7139 2.21918C32.968 1.78356 33.2795 1.40137 33.6483 1.0726C34.0253 0.743836 34.4597 0.484931 34.9514 0.29589C35.4514 0.09863 35.9923 0 36.5742 0C37.1889 0 37.7626 0.115068 38.2954 0.345205C38.8363 0.575342 39.3075 0.89589 39.7091 1.30685C40.1107 1.70959 40.4263 2.1863 40.6558 2.73699C40.8853 3.27945 41 3.86712 41 4.5C41 5.13288 40.8853 5.72466 40.6558 6.27534C40.4263 6.81781 40.1107 7.29452 39.7091 7.70548C39.3075 8.10822 38.8363 8.42466 38.2954 8.65479C37.7626 8.88493 37.1889 9 36.5742 9C35.9923 9 35.4514 8.90137 34.9514 8.70411C34.4515 8.49863 34.0089 8.2274 33.6237 7.89041C33.2467 7.55342 32.9352 7.16301 32.6894 6.71918C32.4435 6.26712 32.2837 5.79452 32.2099 5.30137H31.042V8.81507H29.1979V0.184931ZM36.5742 7.27397C36.9102 7.27397 37.2299 7.20411 37.5331 7.06438C37.8446 6.92466 38.115 6.73151 38.3445 6.48493C38.574 6.23836 38.7543 5.94658 38.8855 5.60959C39.0248 5.2726 39.0945 4.90274 39.0945 4.5C39.0945 4.09726 39.0248 3.7274 38.8855 3.39041C38.7543 3.05342 38.574 2.76164 38.3445 2.51507C38.115 2.26849 37.8446 2.07534 37.5331 1.93562C37.2299 1.79589 36.9102 1.72603 36.5742 1.72603C36.2382 1.72603 35.9144 1.79589 35.603 1.93562C35.2998 2.07534 35.0334 2.26849 34.8039 2.51507C34.5744 2.76164 34.39 3.05342 34.2507 3.39041C34.1195 3.7274 34.054 4.09726 34.054 4.5C34.054 4.90274 34.1195 5.2726 34.2507 5.60959C34.39 5.94658 34.5744 6.23836 34.8039 6.48493C35.0334 6.73151 35.2998 6.92466 35.603 7.06438C35.9144 7.20411 36.2382 7.27397 36.5742 7.27397Z" fill="#493E3E"/>
</svg>
