<?xml version="1.0" encoding="UTF-8"?>
<svg id="_Слой_1" data-name="Слой 1" xmlns="http://www.w3.org/2000/svg" viewBox="0 0 41.5 44">
  <defs>
    <style>
      .cls-1 {
        fill: #493e3e;
        fill-rule: evenodd;
        stroke-width: 0px;
      }
    </style>
  </defs>
  <path class="cls-1" d="m38.62,30.63v2.76l-.02.28-.03.27-.04.27-.05.27-.06.27-.07.27-.08.26-.09.26-.1.26-.11.26-.12.26-.13.25-.14.25-.16.25-.17.25-.18.25-.18.24-.19.24-.2.23-.21.23-.22.23-.22.22-.23.22-.24.21-.25.21-.26.21-.26.2-.27.2-.28.19-.29.19-.3.19-.15.09-.15.09-.15.09-.16.09-.16.09-.16.09-.16.08-.16.08-.17.08-.17.08-.17.08-.17.08-.17.08-.17.08-.18.07-.18.07-.18.07-.18.07-.18.07-.18.07-.19.07-.19.07-.19.07-.19.06-.19.06-.19.06-.2.06-.2.06-.2.06-.2.06-.2.06-.2.05-.21.05-.21.05-.21.05-.21.05-.21.05-.21.04-.21.04-.21.04-.21.04-.22.04-.22.04-.22.03-.22.03-.22.03-.22.03-.22.03-.22.03-.22.02-.22.02-.23.02-.23.02-.23.02-.23.02h-.23s-.23.03-.23.03h-.23s-.23.02-.23.02h-.23s-.24.01-.24.01h-.24s-.24,0-.24,0h-.24s-.24,0-.24,0h-.24s-.24,0-.24,0h-.24s-.23-.01-.23-.01h-.23s-.23-.02-.23-.02h-.23s-.23-.03-.23-.03l-.23-.02-.23-.02-.23-.02-.23-.02-.22-.02-.22-.02-.22-.03-.22-.03-.22-.03-.22-.03-.22-.03-.22-.03-.22-.04-.22-.04-.21-.04-.21-.04-.21-.04-.21-.04-.21-.05-.21-.05-.21-.05-.21-.05-.21-.05-.2-.05-.2-.06-.2-.06-.2-.06-.2-.06-.2-.06-.19-.06-.19-.06-.19-.06-.19-.07-.19-.07-.19-.07-.18-.07-.18-.07-.18-.07-.18-.07-.18-.07-.18-.07-.17-.08-.17-.08-.17-.08-.17-.08-.17-.08-.17-.08-.16-.08-.16-.08-.16-.09-.16-.09-.16-.09-.15-.09-.15-.09-.15-.09-.3-.19-.29-.19-.28-.19-.27-.2-.26-.2-.26-.21-.25-.21-.24-.21-.23-.22-.22-.22-.22-.23-.21-.23-.2-.23-.19-.24-.18-.24-.18-.25-.17-.25-.16-.25-.14-.25-.13-.25-.12-.26-.11-.26-.1-.26-.09-.26-.08-.26-.07-.27-.06-.27-.05-.27-.04-.27-.03-.27-.02-.28v-2.76l.02.28.03.27.04.27.05.27.06.27.07.27.08.26.09.26.1.26.11.26.12.26.13.25.14.25.16.25.17.25.18.25.18.24.19.24.2.23.21.23.22.23.22.22.23.22.24.21.25.21.26.21.26.2.27.2.28.19.29.19.3.19.15.09.15.09.15.09.16.09.16.09.16.09.16.08.16.08.17.08.17.08.17.08.17.08.17.08.17.08.18.07.18.07.18.07.18.07.18.07.18.07.19.07.19.07.19.07.19.06.19.06.19.06.2.06.2.06.2.06.2.06.2.06.2.05.21.05.21.05.21.05.21.05.21.05.21.04.21.04.21.04.21.04.22.04.22.04.22.03.22.03.22.03.22.03.22.03.22.03.22.02.22.02.23.02.23.02.23.02.23.02h.23s.23.03.23.03h.23s.23.02.23.02h.23s.24.01.24.01h.24s.24,0,.24,0h.24s.24,0,.24,0h.24s.24,0,.24,0h.24s.23-.01.23-.01h.23s.23-.02.23-.02h.23s.23-.03.23-.03l.23-.02.23-.02.23-.02.23-.02.22-.02.22-.02.22-.03.22-.03.22-.03.22-.03.22-.03.22-.03.22-.04.22-.04.21-.04.21-.04.21-.04.21-.04.21-.05.21-.05.21-.05.21-.05.21-.05.2-.05.2-.06.2-.06.2-.06.2-.06.2-.06.19-.06.19-.06.19-.06.19-.07.19-.07.19-.07.18-.07.18-.07.18-.07.18-.07.18-.07.18-.07.17-.08.17-.08.17-.08.17-.08.17-.08.17-.08.16-.08.16-.08.16-.09.16-.09.16-.09.15-.09.15-.09.15-.09.3-.19.29-.19.28-.19.27-.2.26-.2.26-.21.25-.21.24-.21.23-.22.22-.22.22-.23.21-.23.2-.23.19-.24.18-.24.18-.25.17-.25.16-.25.14-.25.13-.25.12-.26.11-.26.1-.26.09-.26.08-.26.07-.27.06-.27.05-.27.04-.27.03-.27.02-.28Z"/>
  <path class="cls-1" d="m2.74,30.35c0-1.49.46-2.9,1.37-4.22.66-.95,1.49-1.82,2.51-2.59.89.62,1.85,1.17,2.86,1.67l-6.74,5.25v-.11Zm9.51-3.98c1.24.43,2.53.76,3.87.99l-10.93,8.52c-.4-.42-.76-.85-1.07-1.31-.29-.42-.53-.85-.73-1.29l8.87-6.92Zm7.66,1.35c.23,0,.46,0,.69,0,1.75,0,3.42-.15,5.03-.46l-15.37,11.98c-.85-.36-1.64-.77-2.37-1.22-.23-.14-.45-.28-.66-.43l12.68-9.89Zm14.8-4.21c.89.68,1.65,1.42,2.27,2.24l-19.65,15.32c-1.3-.14-2.55-.37-3.75-.69-.13-.03-.25-.07-.38-.1l21.5-16.77Zm3.55,4.56c.25.74.38,1.5.38,2.29,0,.53-.06,1.05-.17,1.55l-10.95,8.54c-1.91.48-3.96.74-6.14.78l16.89-13.17Z"/>
  <path class="cls-1" d="m2.74,11.12v-.03c0-.07,0-.14,0-.21,0-1.49.46-2.9,1.37-4.22.91-1.32,2.17-2.48,3.78-3.46,1.61-.98,3.5-1.76,5.69-2.34C15.76.29,18.13,0,20.68,0s4.92.29,7.11.86c2.19.58,4.09,1.36,5.69,2.34,1.61.98,2.87,2.14,3.78,3.46.91,1.32,1.37,2.73,1.37,4.22,0,.07,0,.14,0,.21v.03c0,2.08-.46,4.05-1.37,5.9-.91,1.85-2.17,3.46-3.78,4.83-1.61,1.38-3.5,2.47-5.69,3.27-2.19.81-4.56,1.21-7.11,1.21s-4.92-.4-7.11-1.21c-2.19-.81-4.09-1.9-5.69-3.27-1.61-1.38-2.87-2.99-3.78-4.83s-1.37-3.81-1.37-5.9Zm3.5-.98c0-1.03.37-2,1.1-2.92.73-.91,1.75-1.71,3.04-2.39,1.29-.68,2.82-1.22,4.58-1.62,1.76-.4,3.67-.6,5.72-.6s3.96.2,5.72.6c1.76.4,3.29.94,4.58,1.62,1.29.68,2.31,1.48,3.04,2.39.73.91,1.1,1.89,1.1,2.92s-.37,2.01-1.1,2.92c-.26.33-.56.64-.9.94-1.31-.6-2.74-1.1-4.31-1.51-2.51-.66-5.22-.99-8.14-.99s-5.63.33-8.14.99c-1.57.41-3,.92-4.31,1.51-.33-.3-.63-.61-.9-.94-.73-.91-1.1-1.89-1.1-2.92Zm24.74,5.31c.38-.2.73-.41,1.06-.62-1-.4-2.08-.75-3.22-1.05-2.51-.66-5.22-.99-8.14-.99s-5.63.33-8.14.99c-1.14.3-2.22.65-3.22,1.05.33.22.68.43,1.06.62,1.29.68,2.82,1.22,4.58,1.62,1.76.4,3.67.6,5.72.6s3.96-.2,5.72-.6c1.76-.4,3.29-.94,4.58-1.62Z"/>
</svg>